<svg width="811.6382622294182" height="1000.0000000000002" viewBox="0 0 811.6382622294182 1000.0000000000002" xmlns="http://www.w3.org/2000/svg"><defs/><path fill="#00569d" transform="matrix(1.4288956248512543 0 0 1.4288956248512543 -21.95945599238422 -2.15569387276805)" d="M 475.27081345025 308.35867002485 L 366.77081345025 233.65867002485 L 185.17081345025 360.75867002485 L 128.37081345025 400.55867002485 C 110.97081345025 412.75867002485 100.57081345025 432.65867002485 100.57081345025 453.95867002485 L 100.57081345025 534.05867002485 C 100.57081345025 584.15867002485 156.67081345025 613.65867002485 197.97081345025 585.35867002485 L 227.17081345025 565.35867002485 L 322.97081345025 499.75867002485 L 353.87081345025 478.55867002485 L 475.17081345025 395.45867002485 C 505.77081345025 374.55867002485 505.87081345025 329.35867002485 475.27081345025 308.35867002485 Z"/><g opacity="0.67" transform="matrix(1.4288956248512543 0 0 1.4288956248512543 -21.95945599238422 -2.15569387276805)"><path fill="#545353" d="M 475.27081345025 308.35867002485 L 366.77081345025 233.65867002485 L 198.07081345025 117.55867002485 C 156.77081345025 89.15867002485 100.57081345025 118.65867002485 100.57081345025 168.85867002485 L 100.57081345025 267.75867002485 C 100.57081345025 289.05867002485 110.97081345025 309.05867002485 128.47081345025 321.25867002485 L 185.27081345025 360.85867002485 L 289.97081345025 434.05867002485 C 308.17081345025 449.35867002485 319.77081345025 472.35867002485 319.77081345025 497.95867002485 C 319.77081345025 499.35867002485 319.77081345025 500.75867002485 319.67081345025 502.15867002485 L 353.97081345025 478.65867002485 L 475.27081345025 395.55867002485 C 505.77081345025 374.55867002485 505.87081345025 329.35867002485 475.27081345025 308.35867002485 Z"/></g></svg>